<?xml version="1.0" encoding="UTF-8" standalone="no"?>
<!-- Created with Inkscape (http://www.inkscape.org/) -->

<svg
   width="135.46666mm"
   height="135.46666mm"
   viewBox="0 0 135.46666 135.46666"
   version="1.1"
   id="svg15968"
   inkscape:version="1.1.1 (3bf5ae0d25, 2021-09-20)"
   sodipodi:docname="Chameleon.svg"
   inkscape:export-filename="C:\Users\tobet\Workspace\ML-WordCloud\image\Chameleon.png"
   inkscape:export-xdpi="96"
   inkscape:export-ydpi="96"
   xmlns:inkscape="http://www.inkscape.org/namespaces/inkscape"
   xmlns:sodipodi="http://sodipodi.sourceforge.net/DTD/sodipodi-0.dtd"
   xmlns="http://www.w3.org/2000/svg"
   xmlns:svg="http://www.w3.org/2000/svg">
  <sodipodi:namedview
     id="namedview15970"
     pagecolor="#ffffff"
     bordercolor="#666666"
     borderopacity="1.0"
     inkscape:pageshadow="2"
     inkscape:pageopacity="0.0"
     inkscape:pagecheckerboard="0"
     inkscape:document-units="mm"
     showgrid="false"
     inkscape:zoom="1.2810466"
     inkscape:cx="289.21665"
     inkscape:cy="287.26512"
     inkscape:window-width="2560"
     inkscape:window-height="1494"
     inkscape:window-x="-11"
     inkscape:window-y="-11"
     inkscape:window-maximized="1"
     inkscape:current-layer="layer1"
     fit-margin-top="0"
     fit-margin-left="0"
     fit-margin-right="0"
     fit-margin-bottom="0" />
  <defs
     id="defs15965" />
  <g
     inkscape:label="Layer 1"
     inkscape:groupmode="layer"
     id="layer1"
     transform="translate(61.047438,72.34351)">
    <rect
       style="opacity:1;fill:#ffffff;fill-opacity:1;stroke:none;stroke-width:0.259789"
       id="rect18812"
       width="135.67319"
       height="135.46664"
       x="-61.04744"
       y="-72.136978"
       ry="0"
       inkscape:export-filename="C:\Users\tobet\Workspace\ML-WordCloud\image\Chameleon.png"
       inkscape:export-xdpi="96"
       inkscape:export-ydpi="96" />
    <path
       style="fill:#000000;fill-opacity:1;stroke:none;stroke-width:0.0540782px;stroke-linecap:butt;stroke-linejoin:miter;stroke-opacity:1"
       d="m 62.587078,-41.098643 c -0.08374,-1.213061 -0.321829,-2.416554 -0.61374,-3.600407 -0.505772,-2.051187 -1.537828,-3.972072 -1.963964,-6.039391 -0.361656,-1.754508 -0.206714,-3.575325 -0.490996,-5.342539 -0.201677,-1.253704 -0.177453,-2.624739 -0.859234,-3.716548 -0.442499,-0.708624 -1.288203,-1.107702 -1.963964,-1.62599 -1.112481,-0.853237 -2.154316,-1.836345 -3.436943,-2.438984 -2.134323,-1.002807 -4.592976,-1.205431 -6.873884,-1.858275 -2.960139,-0.847254 -5.886246,-1.797776 -8.837853,-2.67127 -2.00112,-0.592209 -4.06202,-1.01938 -6.014645,-1.742131 -1.141851,-0.42265 -2.152802,-1.137902 -3.314193,-1.509849 -1.147731,-0.367571 -2.34864,-0.734193 -3.559691,-0.696853 -1.230231,0.03793 -2.470133,0.387291 -3.55969,0.929138 -1.182506,0.588073 -2.068601,1.600976 -3.068698,2.438984 -0.6285,0.526637 -1.13249,1.200204 -1.841222,1.625991 -1.48809,0.894005 -3.26167,1.267047 -4.909915,1.858275 -2.1540849,0.772672 -4.3461599,1.447632 -6.5056409,2.2067 -1.0684411,0.375562 -2.1625593,0.6974 -3.191447,1.161421 -1.40643926,0.634295 -2.8627888,1.252799 -4.0506802,2.206701 -0.4433722,0.356037 -0.6912762,0.890636 -1.1047292,1.277564 -0.3725422,0.348639 -0.9902947,0.487057 -1.2274846,0.929136 -0.4263922,0.794722 -0.3265023,1.801107 -0.122747,2.67127 0.2493917,1.065057 0.9604279,1.993224 1.5957256,2.903553 0.8169566,1.170633 1.7582172,2.276024 2.82320394,3.25198 0.9640903,0.883495 2.11329616,1.566522 3.19144706,2.322843 0.5654825,0.396685 1.2953036,0.62914 1.7184683,1.161422 0.4434101,0.557747 0.4003645,1.353162 0.7364862,1.974416 0.8171835,1.510398 2.0389528,2.791931 3.0686979,4.181117 1.3819875,1.864381 2.5747889,3.872534 4.1734289,5.574823 1.50094,1.598251 3.304481,2.91978 5.032669,4.297258 1.114296,0.888166 2.253277,1.751304 3.436941,2.555128 1.032601,0.701236 2.071162,1.406325 3.191447,1.974417 0.549299,0.278546 1.245256,0.313134 1.718468,0.696851 0.293095,0.237664 0.437343,0.604278 0.61374,0.929138 0.343757,0.633082 0.47722,1.361279 0.859233,1.974416 0.266099,0.427092 0.66109,0.76949 0.981989,1.161422 0.751734,0.918138 2.209457,2.787412 2.209457,2.787412 0,0 -2.381233,-0.25276 -3.559689,-0.116143 -0.886984,0.102827 -1.724003,0.446964 -2.577702,0.696853 -0.988861,0.289456 -1.967933,0.608388 -2.94595,0.929137 -1.027212,0.336882 -2.074357,0.629379 -3.0687,1.045279 -0.719839,0.301084 -1.41064,0.664041 -2.086717,1.04528 -0.380177,0.21438 -0.676984,0.804334 -1.104731,0.696852 -1.149535,-0.288846 -0.998737,-2.046348 -1.595719,-3.019694 -0.296189,-0.482916 -0.615278,-0.956266 -0.981988,-1.393707 -0.557652,-0.66521 -1.711775,-1.018089 -1.841216,-1.858274 -0.105578,-0.685294 0.671531,-1.231119 0.981982,-1.858274 0.303087,-0.61228 0.614054,-1.223208 0.859234,-1.858274 0.39534,-1.024014 1.154143,-2.057878 0.981988,-3.135837 -0.06613,-0.414057 -0.346286,-0.847687 -0.736493,-1.04528 -0.432893,-0.219209 -1.047212,-0.231384 -1.472972,0 -0.492904,0.267872 -0.529726,0.955458 -0.859235,1.393705 -0.6560262,0.872508 -1.4150107,1.676415 -2.2094649,2.438984 -0.6512082,0.625072 -1.2385055,1.386791 -2.0867115,1.742133 -0.6775763,0.283859 -1.4743444,0.143981 -2.2094648,0.232285 -1.1480627,0.137904 -2.2941292,0.29197 -3.43694096,0.464568 -0.69748957,0.105343 -1.53321424,-0.06674 -2.08671774,0.348427 -0.2441891,0.183155 -0.4080444,0.520572 -0.3682431,0.812994 0.059586,0.437793 0.4784017,0.790334 0.8592353,1.04528 0.63374695,0.424255 1.46130628,0.500776 2.2094648,0.696852 0.727079,0.190552 1.506991,0.204187 2.2094647,0.46457 0.5292596,0.196178 1.1258864,0.387069 1.4729723,0.812994 0.4667357,0.572754 0.3846305,1.400573 0.6137392,2.090559 0.4809567,1.448457 0.8773792,2.939634 1.5957255,4.297258 0.7236498,1.3676489 2.5761533,3.0340752 2.6998165,3.8115558 0.2330858,1.4692206 1.5243697,2.1288362 2.9465857,2.4601203 0.876259,0.2097409 1.797217,0.2641285 2.700454,0.2322844 1.492258,-0.052612 2.955234,-0.4169132 4.418925,-0.6968515 1.731492,-0.3311567 5.155416,-1.1614225 5.155416,-1.1614225 0,0 -4.232704,2.1248679 -6.137398,3.4842636 -2.773274,1.97930807 -5.024297,4.5417361 -7.61037,6.7362447 -2.2895884,1.9429171 -4.845889,3.6108524 -6.996633,5.6909652 -1.6669423,1.612198 -3.19318893,3.366584 -4.54167238,5.226395 -0.61153078,0.843413 -1.59572562,2.67127 -1.59572562,2.67127 0,0 -4.047999,-1.876625 -6.1373916,-2.67127 -2.0890484,-0.794517 -4.2288464,-1.470609 -6.3828964,-2.090557 -1.220467,-0.485352 -2.583324,-0.381803 -3.682439,-1.045281 -0.36628,-0.330459 -0.271919,-0.923591 -0.368243,-1.393705 -0.283034,-1.3813626 -0.410984,-2.7871718 -0.613739,-4.1811155 -0.123863,-0.8515647 -0.125741,-1.7267267 -0.368245,-2.5551276 -0.166356,-0.5682783 -0.364071,-1.1531796 -0.736486,-1.6259875 -0.381929,-0.4848838 -0.920486,-0.8574059 -1.472977,-1.1614245 -0.302198,-0.1662901 -0.984735,-0.017674 -0.981983,-0.3484277 0.0048,-0.57550736 1.173722,-0.32466352 1.718471,-0.58070833 1.138319,-0.5350347 2.204916,-1.21612225 3.191445,-1.97441727 0.853326,-0.6559077 1.583014,-1.4453808 2.332212,-2.2066998 0.553447,-0.5624015 1.470665,-0.9828457 1.595723,-1.7421328 0.04799,-0.2913203 -0.108103,-0.6506888 -0.368244,-0.8129948 -0.239109,-0.1491821 -0.576523,-0.043409 -0.859236,0 -0.383152,0.058831 -0.850406,0.6258848 -1.104732,0.3484258 -0.299724,-0.3269876 0.581314,-0.7296738 0.613742,-1.1614206 0.03669,-0.4884663 -0.07113,-1.1073748 -0.490992,-1.3937069 -0.298735,-0.2037288 -0.750757,-0.096055 -1.104731,0 -0.371045,0.1006874 -0.67091,0.364476 -0.981985,0.5807123 -0.608009,0.422643 -1.140064,0.9353728 -1.71847,1.3937049 -0.445831,0.3532789 -0.853043,0.7598836 -1.350228,1.0452793 -1.065653,0.6117094 -2.19658,1.2774942 -3.436941,1.3937051 -0.790578,0.07407 -1.569397,-0.2545697 -2.332212,-0.4645671 -0.671334,-0.1848136 -1.311072,-0.4601712 -1.963966,-0.6968534 -0.943661,-0.3420877 -1.826876,-0.8854129 -2.823201,-1.0452794 -1.089929,-0.1748848 -2.26618,-0.2167372 -3.314194,0.1161413 -0.473477,0.150389 -1.079573,0.361627 -1.227479,0.8129947 -0.207054,0.6318711 0.214783,1.4178491 0.736487,1.8582741 0.251759,0.2125382 0.660947,0.1340624 0.981983,0.2322845 0.628954,0.1924303 1.331404,0.2987441 1.841218,0.6968536 0.525209,0.4101316 0.962453,0.9958818 1.104732,1.62599145 0.285325,1.26362695 -0.468717,2.54785295 -0.61374,3.83269135 -0.139313,1.2342481 -0.244258,2.4752818 -0.245495,3.716548 -0.0013,1.2799059 0.0502,2.5661913 0.245495,3.8326898 0.181978,1.180122 0.527824,2.333606 0.859236,3.484263 0.360676,1.252263 0.736138,2.504734 1.22748,3.716548 0.386916,0.954267 0.795022,1.910668 1.350227,2.787413 0.660354,1.042783 1.383229,2.084073 2.332209,2.903555 1.425555,1.231023 3.249513,1.972647 4.909918,2.903553 1.654797,0.927762 3.437565,1.654193 5.032664,2.671265 0.869048,0.554124 1.549514,1.359043 2.45496,1.858278 0.190374,0.104966 0.613738,0.232283 0.613738,0.232283 0,0 -2.04388,0.182518 -3.068698,0.232283 -1.7984,0.08733 -3.625773,0.402596 -5.400909,0.116144 -2.629429,-0.424308 -5.089396,-1.56642 -7.487623,-2.671271 -1.205023,-0.555147 -2.34751,-1.235743 -3.436941,-1.974413 -1.345626,-0.91238 -2.623473,-1.922742 -3.805186,-3.019697 -1.511166,-1.402777 -3.039337,-2.838165 -4.173429,-4.529546 -0.98148,-1.463776 -1.543217,-3.147004 -2.209463,-4.761826 -1.054005,-2.55466 -2.527543,-5.0534078 -2.823202,-7.7815218 -0.265057,-2.4457459 0.121011,-4.9972709 0.981983,-7.31695485 1.064923,-2.86917635 2.980255,-5.44138605 5.032666,-7.78152585 2.182978,-2.4890115 4.686204,-4.8287625 7.61037,-6.5039575 2.724201,-1.56064 5.800705,-2.76109 8.9606,-3.13584 3.102516,-0.367947 6.332866,0.08233 9.32884,0.929137 2.910628,0.822683 5.8240538,2.046653 8.1013649,3.948833 1.412329,1.179682 2.2959846,2.84511 3.191447,4.4134017 1.0726541,1.8786167 1.2886385,4.1706455 2.57770781,5.9232498 0.41349288,0.5621809 0.87408454,1.3398523 1.59572139,1.3937051 0.5882724,0.043902 1.2007466,-0.4337608 1.4729786,-0.929138 0.793009,-1.4430329 0.16117,-3.2738566 -0.1227491,-4.8779686 -0.3120438,-1.7630143 -0.8745069,-3.510968 -1.7184725,-5.110255 -1.00927508,-1.912545 -2.4694026,-3.593832 -3.9279332,-5.226396 -1.531567,-1.714313 -3.2429438,-3.288307 -5.0326645,-4.761827 -1.8952105,-1.560374 -3.7319234,-3.304634 -6.0146514,-4.29726 -2.092883,-0.910071 -4.463305,-1.141407 -6.751136,-1.393706 -2.357521,-0.259986 -4.767913,-0.421297 -7.119378,-0.116141 -2.411154,0.312901 -4.700682,1.21062 -6.996633,1.974415 -2.458592,0.817899 -5.046436,1.459099 -7.242128,2.787412 -3.585273,2.168958 -6.460966,5.271368 -9.328841,8.246093 -1.709839,1.773541 -3.263302,3.689647 -4.664422,5.6909631 -1.294878,1.8495641 -2.616296,3.7288726 -3.436941,5.8071087 -0.775154,1.9630312 -1.109705,4.07235775 -1.350227,6.1555344 -0.342175,2.9635991 -0.338137,5.9686848 -0.12275,8.9429418 0.149921,2.070235 0.514344,4.128172 0.981985,6.155535 0.726238,3.148468 1.597257,6.284796 2.823201,9.291372 1.837663,4.506791 3.807203,9.061346 6.751137,13.007921 2.636176,3.534001 5.997892,6.597032 9.574337,9.291368 3.447495,2.59719 7.332424,4.675325 11.292809,6.50396 3.537692,1.633464 7.271283,2.896388 11.047313,3.948833 4.295522,1.197236 8.7025279,2.062189 13.134029,2.671268 3.6955676,0.50793 7.4360425,0.765625 11.1700603,0.812995 5.7348777,0.07275 11.5438277,0.168103 17.1847107,-0.812995 4.695888,-0.816739 9.382927,-2.107894 13.625022,-4.181115 4.078826,-1.993425 7.754793,-4.754505 11.047311,-7.781522 3.029354,-2.785074 5.277051,-6.242281 7.855866,-9.407515 3.90697,-4.795405 8.367734,-9.258305 11.53831,-14.517765 1.645175,-2.729072 2.769881,-5.725473 3.805186,-8.710664 1.116969,-3.220664 2.005721,-6.525931 2.577702,-9.8720822 0.583212,-3.4118535 1.064953,-6.88594376 0.859239,-10.3366494 -0.145516,-2.4409367 -0.810483,-4.8377227 -1.472978,-7.2008137 -0.5872,-2.0945107 -1.051474,-4.2859937 -2.209459,-6.1555327 -1.158414,-0.9704 -0.01196,-1.538541 -0.122753,-2.438984 -0.147088,-0.717075 -1.862426,-0.437314 -1.963965,-1.161422 -0.102814,-0.733205 1.711618,-0.894535 1.595722,-1.62599 -0.133182,-0.840552 -2.160372,-0.443314 -2.332208,-1.277563 -0.178481,-0.866515 1.965883,-1.239349 1.718469,-2.090559 -0.267971,-0.921937 -2.561913,-0.121627 -2.823204,-1.045279 -0.270963,-0.957845 2.211969,-1.359444 1.963971,-2.322844 -0.190729,-0.740918 -1.884211,-0.231413 -2.209465,-0.929136 -0.313299,-0.672075 1.067815,-1.426268 0.73649,-2.090558 -0.243223,-0.48765 -1.367745,-0.08652 -1.595725,-0.580713 -0.440721,-0.955365 1.698931,-1.961415 1.227478,-2.903553 -0.34887,-0.697174 -1.93788,-0.02172 -2.332208,-0.696851 -0.470419,-0.805415 1.164206,-1.844815 0.736487,-2.671269 -2.755068,-1.143642 -2.625501,-1.717546 -2.700455,-3.368123 z"
       id="path16017"
       sodipodi:nodetypes="caaaaaaaaaaaaaaaaaaaaaaaaaaaaaaaaaaacaaaaaaaaaaaaaaaaaaaaaaaaaaaccaacaaaacaccaaaaaaaaaaaaaaaaaaaaaaaaaaaaaaaaaaaaaaacaaaaaaaaaaaaaaaaaaaaaaaaaaaaaaaaaaaaaaaaaaaaaaaaaccssssssssssscc"
       inkscape:export-filename="C:\Users\tobet\Workspace\ML-WordCloud\image\Chameleon.png"
       inkscape:export-xdpi="96"
       inkscape:export-ydpi="96" />
  </g>
</svg>
